<?xml version="1.0" standalone="no"?>
<!DOCTYPE svg PUBLIC "-//W3C//DTD SVG 20010904//EN"
 "http://www.w3.org/TR/2001/REC-SVG-20010904/DTD/svg10.dtd">
<svg version="1.0" xmlns="http://www.w3.org/2000/svg"
 width="5200.000000pt" height="4416.000000pt" viewBox="0 0 5200.000000 4416.000000"
 preserveAspectRatio="xMidYMid meet">

<g transform="translate(0.000000,4416.000000) scale(0.100000,-0.100000)"
fill="#000000" stroke="none">
<path d="M13710 44126 c-454 -104 -909 -261 -1305 -450 -1126 -538 -2042
-1444 -2641 -2611 -284 -553 -488 -1149 -570 -1665 -22 -143 -618 -2356 -4570
-16980 -2499 -9248 -4557 -16863 -4573 -16923 l-29 -107 5826 2 5826 3 1417
5365 c780 2951 1450 5488 1490 5637 l72 273 8267 2 8267 3 -1172 4315 c-645
2373 -1184 4374 -1200 4445 -82 390 -233 761 -429 1054 -117 175 -193 269
-331 407 -345 346 -776 584 -1286 711 l-114 28 -4563 2 c-4334 3 -4563 4
-4558 21 28 96 1576 5474 1576 5477 0 3 4542 6 10093 8 9576 2 10098 3 10207
20 684 105 1308 434 1845 972 294 294 12 -183 3063 5173 1503 2638 2740 4809
2748 4825 l15 27 -16613 -1 -16613 0 -145 -33z"/>
<path d="M40125 30384 c-420 -124 -780 -299 -1102 -538 -139 -102 -391 -354
-462 -461 -29 -44 -3868 -6672 -8531 -14730 l-8479 -14650 6442 -3 c3542 -1
6444 1 6448 5 5 5 3946 6830 8760 15168 4813 8338 8763 15179 8776 15203 l25
42 -5879 0 -5878 -1 -120 -35z"/>
</g>
</svg>
